<?xml version="1.0" encoding="UTF-8"?>
<svg width="248px" height="36px" viewBox="0 0 248 36" version="1.1" xmlns="http://www.w3.org/2000/svg" xmlns:xlink="http://www.w3.org/1999/xlink">
    <!-- Generator: Sketch 52.5 (67469) - http://www.bohemiancoding.com/sketch -->
    <title>Group 19</title>
    <desc>Created with Sketch.</desc>
    <defs>
        <polygon id="path-1" points="0.0580643478 0.405533913 22.103647 0.405533913 22.103647 25.3391304 0.0580643478 25.3391304"></polygon>
        <polygon id="path-3" points="5.39130435e-05 0.405587826 20.0174278 0.405587826 20.0174278 25.3391304 5.39130435e-05 25.3391304"></polygon>
        <polygon id="path-5" points="0 35.5757617 247.812922 35.5757617 247.812922 0.000161739131 0 0.000161739131"></polygon>
    </defs>
    <g id="Page-1" stroke="none" stroke-width="1" fill="none" fill-rule="evenodd">
        <g id="SU-login" transform="translate(-278.000000, -205.000000)">
            <g id="Group-19" transform="translate(278.000000, 205.000000)">
                <path d="M32.1796174,14.1895357 C32.6869391,13.5485096 33.2945391,12.9565443 34.0045739,12.4157965 C34.6132522,11.9769443 35.3556348,11.5720574 36.2344174,11.1995183 C37.1126609,10.8285965 38.125687,10.6420574 39.2745739,10.6420574 C40.6601391,10.6420574 41.9438087,10.8830487 43.1266609,11.3644922 C44.3089739,11.8453965 45.3317043,12.5505791 46.1926957,13.4795009 C47.0542261,14.4078835 47.7205913,15.5276574 48.194487,16.8382835 C48.6673043,18.1489096 48.9039826,19.6503878 48.9039826,21.34164 L48.9039826,35.5250835 L42.0618783,35.5250835 L42.0618783,22.1751357 C42.0618783,20.6919878 41.6144,19.4967357 40.7194435,18.5899183 C39.824487,17.68364 38.6669739,17.2307704 37.2474435,17.2307704 C35.7270957,17.2307704 34.5027304,17.70844 33.5738087,18.6643183 C32.6438087,19.6207357 32.1796174,21.0381096 32.1796174,22.91644 L32.1796174,35.5250835 L25.3385913,35.5250835 L25.3385913,0.0503008696 L32.1796174,0.0503008696 L32.1796174,14.1895357 Z" id="Fill-4" fill="#216EFB"></path>
                <g id="Group-8" transform="translate(53.913043, 10.236631)">
                    <mask id="mask-2" fill="white">
                        <use xlink:href="#path-1"></use>
                    </mask>
                    <g id="Clip-7"></g>
                    <path d="M10.1942557,19.7646296 C11.7146035,19.7646296 12.9384296,19.3214643 13.8678904,18.4335165 C14.7968122,17.5461078 15.2620817,16.2764557 15.2620817,14.6256383 L15.2620817,13.9247687 L9.68801217,14.8590817 C7.82909043,15.1394296 6.89962957,15.996647 6.89962957,17.4285774 C6.89962957,18.1450817 7.16164696,18.7138643 7.68514261,19.1343861 C8.20917739,19.5549078 9.0453687,19.7646296 10.1942557,19.7646296 Z M15.2620817,22.5567861 C14.7207948,23.0824383 14.1126557,23.5466296 13.4376643,23.9482817 C12.8624122,24.288473 12.1529165,24.6054817 11.3091774,24.8987687 C10.4638209,25.1925948 9.50147304,25.3392383 8.41997739,25.3392383 C7.13630783,25.3392383 5.98742087,25.1553948 4.97439478,24.7860904 C3.96029043,24.4178643 3.08150783,23.9294122 2.33912522,23.3201948 C1.59566435,22.7109774 1.02903826,21.9977078 0.641403478,21.1803861 C0.252151304,20.3630643 0.0580643478,19.505847 0.0580643478,18.6076557 C0.0580643478,16.6851165 0.708794783,15.0822817 2.00917739,13.8002296 C3.30956,12.5187165 5.10809913,11.6846817 7.4069513,11.2997426 L15.2620817,9.95407304 C15.2620817,8.96422957 14.8981687,8.13828174 14.1724991,7.47784696 C13.4457513,6.81687304 12.3728817,6.48692522 10.9544296,6.48692522 C9.97429043,6.48692522 9.14672522,6.62224696 8.47065565,6.8923513 C7.79458609,7.16245565 7.22041217,7.44873391 6.74759478,7.75334261 C6.20684696,8.12534261 5.75074261,8.54694261 5.37982087,9.01922087 L1.5789513,5.2199687 C2.25448174,4.34226435 3.08150783,3.54758609 4.06164696,2.83809043 C4.87249913,2.23049043 5.89361217,1.67249043 7.12822087,1.16570783 C8.36121217,0.658925217 9.80554261,0.405533913 11.4612122,0.405533913 C13.0489513,0.405533913 14.4927426,0.655151304 15.7942035,1.1527687 C17.0945861,1.64930783 18.2181339,2.33885565 19.1637687,3.21763826 C20.1094035,4.09642087 20.8366904,5.12508174 21.343473,6.30308174 C21.8497165,7.48162087 22.103647,8.74965565 22.103647,10.1098817 L22.103647,25.28856 L15.2620817,25.28856 L15.2620817,22.5567861 Z" id="Fill-6" fill="#216EFB" mask="url(#mask-2)"></path>
                </g>
                <g id="Group-3" transform="translate(0.000000, 10.236631)">
                    <mask id="mask-4" fill="white">
                        <use xlink:href="#path-3"></use>
                    </mask>
                    <g id="Clip-2"></g>
                    <path d="M15.7108539,8.26071826 C15.4067843,7.88979652 15.0514974,7.55122261 14.6460713,7.24715304 C14.2735322,6.9770487 13.842767,6.74037043 13.3543148,6.53765739 C12.8637061,6.33494435 12.29708,6.23358783 11.6560539,6.23358783 C10.6430278,6.23358783 9.88231478,6.43522261 9.3760713,6.83849217 C8.86874957,7.24122261 8.61589739,7.68546609 8.61589739,8.16798783 C8.61589739,8.71682261 8.89354957,9.16052696 9.4520887,9.49910087 C10.0090104,9.83821391 10.7104191,10.1433617 11.5546974,10.4177791 C12.3989757,10.6916574 13.3192713,10.9822487 14.3166626,11.2884748 C15.3129757,11.59524 16.2343496,12.0141443 17.0786278,12.5462661 C17.9234452,13.0783878 18.6243148,13.7630835 19.1812365,14.6019704 C19.7397757,15.4403183 20.0174278,16.5201965 20.0174278,17.8416052 C20.0174278,18.8745791 19.7974626,19.84124 19.3596887,20.7442835 C18.9192191,21.6467878 18.28628,22.437153 17.4587148,23.1143009 C16.6300713,23.7919878 15.6003322,24.3321965 14.3673409,24.7354661 C13.1343496,25.1381965 11.7234452,25.3392922 10.1362452,25.3392922 C8.34525391,25.3392922 6.80765391,25.103153 5.52398435,24.6297965 C4.23977565,24.1569791 3.19278435,23.6340226 2.38193217,23.0587704 C1.40179304,22.4172052 0.607653913,21.6581096 5.39130435e-05,20.779327 L3.80146261,17.1951878 C4.2068887,17.6938835 4.67970609,18.1295009 5.21991478,18.5031183 C5.69273217,18.8460052 6.24965391,19.142527 6.89229739,19.3910661 C7.53332348,19.6401443 8.27786261,19.7646835 9.12214087,19.7646835 C10.2699496,19.7646835 11.1061409,19.5555009 11.6307148,19.1360574 C12.1536713,18.7166139 12.4162278,18.200127 12.4162278,17.5871357 C12.4162278,16.9741443 12.1380365,16.4980922 11.5800365,16.1589791 C11.0231148,15.8204052 10.3217061,15.5060922 9.4768887,15.2155009 C8.63153217,14.9254487 7.71123652,14.6273096 6.71492348,14.3200052 C5.7180713,14.0137791 4.79777565,13.6024226 3.95295826,13.0859357 C3.10868,12.5699878 2.4072713,11.9090139 1.85034957,11.1019357 C1.29234957,10.2953965 1.01308,9.23061391 1.01308,7.90758783 C1.01308,7.00400522 1.25029739,6.10042261 1.72311478,5.19684 C2.19593217,4.29433565 2.86337565,3.48725739 3.72490609,2.77722261 C4.58697565,2.06772696 5.60862783,1.49409217 6.79094087,1.05901391 C7.97325391,0.623396522 9.25692348,0.405587826 10.6430278,0.405587826 C12.0949061,0.405587826 13.3618626,0.60830087 14.4428191,1.01372696 C15.5243148,1.41915304 16.4192713,1.85854435 17.1293061,2.33136174 C17.9735843,2.90607478 18.6836191,3.53146609 19.2583322,4.20645739 L15.7108539,8.26071826 Z" id="Fill-1" fill="#216EFB" mask="url(#mask-4)"></path>
                </g>
                <mask id="mask-6" fill="white">
                    <use xlink:href="#path-5"></use>
                </mask>
                <g id="Clip-10"></g>
                <polygon id="Fill-9" fill="#216EFB" mask="url(#mask-6)" points="82.8578783 35.5250835 89.6989043 35.5250835 89.6989043 0.0503008696 82.8578783 0.0503008696"></polygon>
                <polygon id="Fill-11" fill="#216EFB" mask="url(#mask-6)" points="96.7933217 35.5250835 103.635426 35.5250835 103.635426 0.0503008696 96.7933217 0.0503008696"></polygon>
                <path d="M137.589106,28.7344661 C138.669523,28.7344661 139.683628,28.5285183 140.629263,28.1166226 C141.574897,27.704727 142.403541,27.1354052 143.111958,26.4097357 C143.821993,25.6851443 144.387002,24.827927 144.810758,23.8380835 C145.232897,22.8493183 145.443158,21.7608139 145.443158,20.5741878 L145.443158,14.4157009 L153.045976,14.4157009 L153.045976,20.670153 C153.045976,22.7910922 152.656184,24.7529878 151.880376,26.5585357 C151.101871,28.3640835 150.021993,29.936727 148.635889,31.2786226 C147.250323,32.6199791 145.621071,33.6712835 143.745976,34.4330748 C141.870341,35.1948661 139.81841,35.5754922 137.589106,35.5754922 C135.358723,35.5754922 133.306793,35.1948661 131.431158,34.4330748 C129.556063,33.6712835 127.925732,32.6199791 126.541245,31.2786226 C125.15568,29.936727 124.074184,28.3640835 123.296758,26.5585357 C122.519871,24.7529878 122.132237,22.7910922 122.132237,20.670153 L122.132237,14.4157009 L129.733976,14.4157009 L129.733976,20.5741878 C129.733976,21.7608139 129.944237,22.8493183 130.366915,23.8380835 C130.789054,24.827927 131.355141,25.6851443 132.065176,26.4097357 C132.773593,27.1354052 133.601697,27.704727 134.547871,28.1166226 C135.493506,28.5285183 136.506532,28.7344661 137.589106,28.7344661" id="Fill-12" fill="#216EFB" mask="url(#mask-6)"></path>
                <path d="M167.234918,13.9994922 C167.74224,13.3924313 168.34984,12.8322748 169.059875,12.3211791 C169.667475,11.9060487 170.410936,11.5216487 171.289718,11.1701357 C172.167962,10.8191617 173.180988,10.6417878 174.329875,10.6417878 C175.71544,10.6417878 176.998031,10.8833183 178.181962,11.3642226 C179.364275,11.8456661 180.387005,12.5503096 181.247997,13.4792313 C182.109527,14.408153 182.775892,15.527927 183.249788,16.838553 C183.722605,18.14864 183.959283,19.6501183 183.959283,21.3413704 L183.959283,35.525353 L177.117179,35.525353 L177.117179,22.1748661 C177.117179,20.6917183 176.669701,19.4964661 175.774744,18.5901878 C174.87871,17.6839096 173.722275,17.2305009 172.302744,17.2305009 C170.782397,17.2305009 169.558031,17.7087096 168.62911,18.6640487 C167.69911,19.6210052 167.234918,21.0383791 167.234918,22.9167096 L167.234918,35.525353 L160.393892,35.525353 L160.393892,10.6930052 L167.234918,10.6930052 L167.234918,13.9994922 Z" id="Fill-13" fill="#216EFB" mask="url(#mask-6)"></path>
                <path d="M190.799878,35.5250835 L197.640904,35.5250835 L197.640904,10.6927357 L190.799878,10.6927357 L190.799878,35.5250835 Z M198.148765,3.80049217 C198.148765,4.94937913 197.793478,5.87021391 197.083983,6.56299652 C196.374487,7.25577913 195.378174,7.60136174 194.094504,7.60136174 C192.944539,7.60136174 192.024243,7.25577913 191.332539,6.56299652 C190.639757,5.87021391 190.293096,4.94937913 190.293096,3.80049217 C190.293096,2.65268348 190.639757,1.7318487 191.332539,1.03852696 C192.024243,0.346283478 192.944539,0.000161739131 194.094504,0.000161739131 C195.378174,0.000161739131 196.374487,0.346283478 197.083983,1.03852696 C197.793478,1.7318487 198.148765,2.65268348 198.148765,3.80049217 Z" id="Fill-14" fill="#216EFB" mask="url(#mask-6)"></path>
                <path d="M207.523381,2.88833739 L213.605311,2.88833739 L213.605311,10.7434678 L218.672598,10.7434678 L218.672598,16.8253983 L213.605311,16.8253983 L213.605311,26.70712 C213.605311,27.4845461 213.892129,28.1439026 214.466842,28.6835722 C215.040477,29.2248591 215.767224,29.4949635 216.645468,29.4949635 C217.354963,29.4949635 217.963642,29.41032 218.470424,29.241033 C218.73999,29.1736417 218.976668,29.0889983 219.17992,28.9876417 L219.17992,34.81672 C218.774494,34.9520417 218.334563,35.0868243 217.861746,35.2210678 C217.45632,35.3224243 216.974877,35.4070678 216.417955,35.4744591 C215.859955,35.5418504 215.259903,35.5758157 214.618337,35.5758157 C212.084963,35.5758157 210.140859,34.8749461 208.790337,33.4726678 C207.439277,32.0714678 206.763207,29.9003896 206.763207,26.9605113 L206.763207,16.8253983 L202.455555,16.8253983 L202.455555,10.7434678 L204.736077,10.7434678 C205.512963,10.7434678 206.17232,10.4480243 206.712529,9.85659826 C207.252737,9.2657113 207.523381,8.46294609 207.523381,7.44938087 L207.523381,2.88833739 Z" id="Fill-15" fill="#216EFB" mask="url(#mask-6)"></path>
                <path d="M235.397017,16.470327 C233.87667,16.470327 232.618339,16.82184 231.622026,17.524327 C230.624635,18.227353 229.940478,19.0915791 229.568478,20.1191617 L240.971626,20.1191617 C240.700983,19.0915791 240.084757,18.227353 239.122409,17.524327 C238.158983,16.82184 236.917365,16.470327 235.397017,16.470327 Z M229.568478,24.7815617 C229.839122,26.1062052 230.523817,27.2653357 231.622026,28.2584139 C232.719157,29.2514922 234.231417,29.7480313 236.157191,29.7480313 C237.238687,29.7480313 238.184322,29.5879096 238.995174,29.2660487 C239.806026,28.9458052 240.49773,28.5996835 241.072443,28.2276835 C241.715087,27.7888313 242.272009,27.2820487 242.745904,26.7067965 L246.293383,31.2689183 C245.548843,32.1142748 244.637174,32.8399443 243.556757,33.4475443 C242.64347,33.9882922 241.529626,34.4783617 240.211452,34.9172139 C238.893817,35.3566052 237.37347,35.5760313 235.650948,35.5760313 C233.825991,35.5760313 232.110478,35.2503965 230.507104,34.5980487 C228.901035,33.94624 227.499835,33.0496661 226.30027,31.9088661 C225.100704,30.7686052 224.162617,29.4482748 223.487626,27.948953 C222.811557,26.4501704 222.473522,24.8370922 222.473522,23.10864 C222.473522,21.4146922 222.811557,19.8091617 223.487626,18.2936661 C224.162617,16.7781704 225.092617,15.4502922 226.27493,14.308953 C227.457243,13.1692313 228.825557,12.2726574 230.37933,11.6203096 C231.933643,10.9685009 233.606026,10.6417878 235.397017,10.6417878 C237.153504,10.6417878 238.793,10.9388487 240.313348,11.5324313 C241.833157,12.1249357 243.15133,12.9514226 244.266252,14.0091965 C245.380635,15.0669704 246.250252,16.3172139 246.875643,17.7604661 C247.499957,19.20264 247.812652,20.7580313 247.812652,22.4250226 C247.812652,22.8741183 247.795939,23.2590574 247.762513,23.57984 C247.728548,23.9000835 247.695122,24.1723443 247.661157,24.3966226 C247.62773,24.6532487 247.592687,24.7815617 247.560339,24.7815617 L229.568478,24.7815617 Z" id="Fill-16" fill="#216EFB" mask="url(#mask-6)"></path>
                <path d="M130.063384,4.11405043 C130.063384,1.86965043 128.243819,0.0506243478 125.999958,0.0506243478 C123.755558,0.0506243478 121.935993,1.86965043 121.935993,4.11405043 C121.935993,6.35845043 123.755558,8.17801565 125.999958,8.17801565 C128.243819,8.17801565 130.063384,6.35845043 130.063384,4.11405043" id="Fill-17" fill="#216EFB" mask="url(#mask-6)"></path>
                <path d="M153.075412,4.14375652 C153.075412,1.89935652 151.255847,0.0803304348 149.011986,0.0803304348 C146.767586,0.0803304348 144.948021,1.89935652 144.948021,4.14375652 C144.948021,6.38815652 146.767586,8.20772174 149.011986,8.20772174 C151.255847,8.20772174 153.075412,6.38815652 153.075412,4.14375652" id="Fill-18" fill="#216EFB" mask="url(#mask-6)"></path>
            </g>
        </g>
    </g>
</svg>