<svg width="20" height="24" viewBox="0 0 20 24" fill="none" xmlns="http://www.w3.org/2000/svg">
<path d="M19.3638 16.8999C17.8531 15.6228 16.9868 13.7562 16.9868 11.7788V8.99297C16.9868 5.4768 14.3748 2.56605 10.9915 2.07845V0.999158C10.9915 0.446612 10.5438 0 9.99213 0C9.44068 0 8.99297 0.446612 8.99297 0.999158V2.07845C5.60853 2.56605 2.99766 5.4768 2.99766 8.99297V11.7788C2.99766 13.7562 2.13133 15.6228 0.611461 16.9078C0.222848 17.2406 0 17.7241 0 18.2357C0 19.2001 0.78436 19.9844 1.74857 19.9844H18.2357C19.2001 19.9844 19.9844 19.2001 19.9844 18.2357C19.9844 17.7241 19.7616 17.2406 19.3638 16.8999Z" fill="#216EFB"/>
<path d="M9.99219 23.9811C11.8019 23.9811 13.3157 22.691 13.6633 20.9834H6.32104C6.66886 22.691 8.18269 23.9811 9.99219 23.9811Z" fill="#216EFB"/>
</svg>
