<svg width="19" height="19" viewBox="0 0 19 19" fill="none" xmlns="http://www.w3.org/2000/svg">
<path fill-rule="evenodd" clip-rule="evenodd" d="M13.05 12.32H13.86L19 17.47L17.47 19L12.32 13.82V13.01L12.04 12.72C9.30744 15.0655 5.20953 14.8315 2.76176 12.1901C0.313996 9.5487 0.392041 5.44485 2.93847 2.89843C5.48489 0.352002 9.58874 0.273957 12.2301 2.72172C14.8715 5.16949 15.1056 9.2674 12.76 12L13.05 12.32ZM3.06 7.68996C3.06 10.247 5.13292 12.32 7.69 12.32C8.91795 12.32 10.0956 11.8322 10.9639 10.9639C11.8322 10.0956 12.32 8.91791 12.32 7.68996C12.32 5.13288 10.2471 3.05996 7.69 3.05996C5.13292 3.05996 3.06 5.13288 3.06 7.68996Z" fill="#216EFB"/>
</svg>
