<svg width="28" height="22" viewBox="0 0 28 22" fill="none" xmlns="http://www.w3.org/2000/svg">
<path d="M8.49455 0.0078125C5.67645 0.0078125 3.38379 2.43867 3.38379 5.42658C3.38379 8.41448 5.67645 10.8453 8.49455 10.8453C11.3127 10.8453 13.6054 8.41448 13.6054 5.42658C13.6054 2.43867 11.3127 0.0078125 8.49455 0.0078125Z" fill="#D1CFD5"/>
<path d="M20.1138 0.783203C20.1023 0.783203 20.0905 0.783258 20.079 0.783313C18.8963 0.793102 17.7917 1.29245 16.9685 2.18949C16.1598 3.07067 15.72 4.23316 15.7302 5.46276C15.7403 6.69235 16.1992 7.84741 17.0223 8.71519C17.8519 9.5897 18.9509 10.07 20.1204 10.07C20.1322 10.07 20.1439 10.0699 20.1557 10.0699C21.3384 10.0601 22.4431 9.56066 23.2663 8.66367C24.075 7.78249 24.5147 6.62 24.5046 5.39035C24.4835 2.84224 22.5173 0.783203 20.1138 0.783203Z" fill="#D1CFD5"/>
<path d="M20.3298 10.957H19.9054C17.929 10.957 16.1254 11.7084 14.7637 12.94C15.1044 13.2014 15.4287 13.4863 15.736 13.7937C16.6427 14.7004 17.3548 15.757 17.8524 16.9338C18.3009 17.9937 18.5568 19.1104 18.6164 20.2605H28.0002V18.627C28.0002 14.398 24.5593 10.957 20.3298 10.957Z" fill="#D1CFD5"/>
<path d="M16.9723 20.2605C16.8175 17.7673 15.5537 15.5743 13.6675 14.1688C12.2954 13.1462 10.5935 12.5408 8.75 12.5408H8.23922C3.68867 12.5408 0 16.2294 0 20.78V21.7578H16.9887V20.78C16.9887 20.6055 16.9832 20.4322 16.9723 20.2605Z" fill="#D1CFD5"/>
</svg>
