<svg width="22" height="22" viewBox="0 0 22 22" fill="none" xmlns="http://www.w3.org/2000/svg">
<path d="M18.4381 0.00268555H3.35238C1.50333 0.00268555 0 1.50602 0 3.35507V13.4122C0 15.2613 1.50333 16.7646 3.35238 16.7646V20.9551C3.35238 21.2798 3.54095 21.5784 3.83952 21.7146C3.94952 21.767 4.07 21.7932 4.19048 21.7932C4.38429 21.7932 4.58333 21.7251 4.73524 21.5941L10.3662 16.7646H18.4381C20.2871 16.7646 21.7905 15.2613 21.7905 13.4122V3.35507C21.7905 1.50602 20.2871 0.00268555 18.4381 0.00268555Z" fill="#D1CFD5"/>
<rect x="5" y="5" width="13" height="2" rx="1" fill="white"/>
<rect x="5" y="10" width="8" height="2" rx="1" fill="white"/>
</svg>
